<svg xmlns="http://www.w3.org/2000/svg" width="980" height="420" viewBox="0 0 980 420">
<defs>
<linearGradient id="bg" x1="0" y1="0" x2="1" y2="1">
<stop offset="0%" stop-color="#f8fafc"/>
<stop offset="100%" stop-color="#eef2ff"/>
</linearGradient>
</defs>
<rect x="0" y="0" width="100%" height="100%" fill="url(#bg)" rx="20"/>
<rect x="24" y="24" width="932" height="372" fill="#ffffff" rx="18" stroke="#dbe4f0"/>
<text x="90" y="42" font-family="Helvetica, Arial, sans-serif" font-size="22" font-weight="700" fill="#0f172a">origination/task-01 — Per-run rubric score</text>
<text x="90" y="61" font-family="Helvetica, Arial, sans-serif" font-size="12" fill="#475569">Score = percentage of rubric components passed (tools, handoffs, step decisions, outcome, forbidden actions, evidence)</text>
<line x1="90" y1="350.0" x2="940" y2="350.0" stroke="#cbd5e1" stroke-width="1"/>
<text x="76" y="354.0" text-anchor="end" font-family="Helvetica, Arial, sans-serif" font-size="12" fill="#64748b">0</text>
<line x1="90" y1="280.0" x2="940" y2="280.0" stroke="#e2e8f0" stroke-width="1"/>
<text x="76" y="284.0" text-anchor="end" font-family="Helvetica, Arial, sans-serif" font-size="12" fill="#64748b">25</text>
<line x1="90" y1="210.0" x2="940" y2="210.0" stroke="#e2e8f0" stroke-width="1"/>
<text x="76" y="214.0" text-anchor="end" font-family="Helvetica, Arial, sans-serif" font-size="12" fill="#64748b">50</text>
<line x1="90" y1="140.0" x2="940" y2="140.0" stroke="#e2e8f0" stroke-width="1"/>
<text x="76" y="144.0" text-anchor="end" font-family="Helvetica, Arial, sans-serif" font-size="12" fill="#64748b">75</text>
<line x1="90" y1="70.0" x2="940" y2="70.0" stroke="#cbd5e1" stroke-width="1"/>
<text x="76" y="74.0" text-anchor="end" font-family="Helvetica, Arial, sans-serif" font-size="12" fill="#64748b">100</text>
<line x1="90.0" y1="70" x2="90.0" y2="350" stroke="#f1f5f9" stroke-width="1"/>
<text x="90.0" y="374" text-anchor="middle" font-family="Helvetica, Arial, sans-serif" font-size="12" fill="#64748b">Run 1</text>
<line x1="373.3" y1="70" x2="373.3" y2="350" stroke="#f1f5f9" stroke-width="1"/>
<text x="373.3" y="374" text-anchor="middle" font-family="Helvetica, Arial, sans-serif" font-size="12" fill="#64748b">Run 2</text>
<line x1="656.7" y1="70" x2="656.7" y2="350" stroke="#f1f5f9" stroke-width="1"/>
<text x="656.7" y="374" text-anchor="middle" font-family="Helvetica, Arial, sans-serif" font-size="12" fill="#64748b">Run 3</text>
<line x1="940.0" y1="70" x2="940.0" y2="350" stroke="#f1f5f9" stroke-width="1"/>
<text x="940.0" y="374" text-anchor="middle" font-family="Helvetica, Arial, sans-serif" font-size="12" fill="#64748b">Run 4</text>
<rect x="90" y="70" width="850" height="280" fill="none" stroke="#cbd5e1"/>
<polyline points="90.0,163.3 373.3,116.7 656.7,116.7 940.0,163.3" fill="none" stroke="#0f766e" stroke-width="3.5" stroke-linecap="round" stroke-linejoin="round"/>
<circle cx="90.0" cy="163.3" r="4.5" fill="#ffffff" stroke="#0f766e" stroke-width="2.5"/>
<text x="90.0" y="153.3" text-anchor="middle" font-family="Helvetica, Arial, sans-serif" font-size="11" fill="#0f766e">67%</text>
<circle cx="373.3" cy="116.7" r="4.5" fill="#ffffff" stroke="#0f766e" stroke-width="2.5"/>
<text x="373.3" y="106.7" text-anchor="middle" font-family="Helvetica, Arial, sans-serif" font-size="11" fill="#0f766e">83%</text>
<circle cx="656.7" cy="116.7" r="4.5" fill="#ffffff" stroke="#0f766e" stroke-width="2.5"/>
<text x="656.7" y="106.7" text-anchor="middle" font-family="Helvetica, Arial, sans-serif" font-size="11" fill="#0f766e">83%</text>
<circle cx="940.0" cy="163.3" r="4.5" fill="#ffffff" stroke="#0f766e" stroke-width="2.5"/>
<text x="940.0" y="153.3" text-anchor="middle" font-family="Helvetica, Arial, sans-serif" font-size="11" fill="#0f766e">67%</text>
<polyline points="90.0,70.0 373.3,70.0 656.7,116.7 940.0,70.0" fill="none" stroke="#c2410c" stroke-width="3.5" stroke-linecap="round" stroke-linejoin="round"/>
<circle cx="90.0" cy="70.0" r="4.5" fill="#ffffff" stroke="#c2410c" stroke-width="2.5"/>
<text x="90.0" y="60.0" text-anchor="middle" font-family="Helvetica, Arial, sans-serif" font-size="11" fill="#c2410c">100%</text>
<circle cx="373.3" cy="70.0" r="4.5" fill="#ffffff" stroke="#c2410c" stroke-width="2.5"/>
<text x="373.3" y="60.0" text-anchor="middle" font-family="Helvetica, Arial, sans-serif" font-size="11" fill="#c2410c">100%</text>
<circle cx="656.7" cy="116.7" r="4.5" fill="#ffffff" stroke="#c2410c" stroke-width="2.5"/>
<text x="656.7" y="106.7" text-anchor="middle" font-family="Helvetica, Arial, sans-serif" font-size="11" fill="#c2410c">83%</text>
<circle cx="940.0" cy="70.0" r="4.5" fill="#ffffff" stroke="#c2410c" stroke-width="2.5"/>
<text x="940.0" y="60.0" text-anchor="middle" font-family="Helvetica, Arial, sans-serif" font-size="11" fill="#c2410c">100%</text>
<line x1="90" y1="392" x2="112" y2="392" stroke="#0f766e" stroke-width="4" stroke-linecap="round"/>
<circle cx="101" cy="392" r="4" fill="#ffffff" stroke="#0f766e" stroke-width="2"/>
<text x="120" y="396" font-family="Helvetica, Arial, sans-serif" font-size="13" fill="#334155">claude-opus-4.6</text>
<line x1="310" y1="392" x2="332" y2="392" stroke="#c2410c" stroke-width="4" stroke-linecap="round"/>
<circle cx="321" cy="392" r="4" fill="#ffffff" stroke="#c2410c" stroke-width="2"/>
<text x="340" y="396" font-family="Helvetica, Arial, sans-serif" font-size="13" fill="#334155">gpt-5.2</text>
</svg>
